<svg width="31" height="31" viewBox="0 0 31 31" fill="none" xmlns="http://www.w3.org/2000/svg">
<path d="M8.96607 7.29023C10.0237 5.49453 9.4203 3.21211 7.6183 2.19229C5.81629 1.17247 3.49808 1.80143 2.44043 3.59712C1.38278 5.39282 1.9862 7.67524 3.78821 8.69506C5.59021 9.71488 7.90842 9.08592 8.96607 7.29023Z" stroke="white" stroke-width="1.71486" stroke-linecap="round" stroke-linejoin="round"/>
<path d="M8.96607 27.5186C10.0237 25.7229 9.4203 23.4405 7.6183 22.4207C5.81629 21.4009 3.49809 22.0298 2.44044 23.8255C1.38279 25.6212 1.9862 27.9036 3.78821 28.9235C5.59021 29.9433 7.90842 29.3143 8.96607 27.5186Z" stroke="white" stroke-width="1.71486" stroke-linecap="round" stroke-linejoin="round"/>
<path d="M29.0852 17.4044C30.1429 15.6087 29.5394 13.3262 27.7374 12.3064C25.9354 11.2866 23.6172 11.9156 22.5596 13.7113C21.5019 15.5069 22.1053 17.7894 23.9073 18.8092C25.7094 19.829 28.0276 19.2 29.0852 17.4044Z" stroke="white" stroke-width="1.71486" stroke-linecap="round" stroke-linejoin="round"/>
<path d="M9.72559 7.46619L21.786 13.5292" stroke="white" stroke-width="1.71473" stroke-linecap="round" stroke-linejoin="round"/>
<path d="M9.09375 23.9669L22.4299 17.2626" stroke="white" stroke-width="1.71473" stroke-linecap="round" stroke-linejoin="round"/>
</svg>
